<svg width="250" height="51" viewBox="0 0 250 51" fill="none" xmlns="http://www.w3.org/2000/svg">
<path d="M60.2097 19.6009C60.2097 27.3887 53.8965 33.7019 46.1087 33.7019C38.321 33.7019 32.0078 27.3887 32.0078 19.6009C32.0078 11.8132 38.321 5.5 46.1087 5.5C53.8965 5.5 60.2097 11.8132 60.2097 19.6009ZM36.327 19.6009C36.327 25.0033 40.7064 29.3827 46.1087 29.3827C51.5111 29.3827 55.8905 25.0033 55.8905 19.6009C55.8905 14.1986 51.5111 9.81916 46.1087 9.81916C40.7064 9.81916 36.327 14.1986 36.327 19.6009Z" fill="white"/>
<path d="M28.9519 19.6009C28.9519 27.3887 22.6387 33.7019 14.8509 33.7019C7.0632 33.7019 0.75 27.3887 0.75 19.6009C0.75 11.8132 7.0632 5.5 14.8509 5.5C22.6387 5.5 28.9519 11.8132 28.9519 19.6009ZM5.06916 19.6009C5.06916 25.0033 9.44861 29.3827 14.8509 29.3827C20.2533 29.3827 24.6327 25.0033 24.6327 19.6009C24.6327 14.1986 20.2533 9.81916 14.8509 9.81916C9.44861 9.81916 5.06916 14.1986 5.06916 19.6009Z" fill="white"/>
<path d="M21.1962 19.601C21.1962 23.1055 18.3553 25.9465 14.8508 25.9465C11.3463 25.9465 8.50537 23.1055 8.50537 19.601C8.50537 16.0966 11.3463 13.2556 14.8508 13.2556C18.3553 13.2556 21.1962 16.0966 21.1962 19.601ZM11.2478 19.601C11.2478 21.5909 12.8609 23.204 14.8508 23.204C16.8407 23.204 18.4538 21.5909 18.4538 19.601C18.4538 17.6112 16.8407 15.998 14.8508 15.998C12.8609 15.998 11.2478 17.6112 11.2478 19.601Z" fill="white"/>
<path d="M36.8564 35.3472C37.6823 35.3472 38.3664 36.0228 38.2081 36.8334C37.9145 38.337 37.1794 39.7321 36.0803 40.8311C34.6259 42.2856 32.6532 43.1027 30.5963 43.1027C28.5394 43.1027 26.5668 42.2856 25.1124 40.8311C24.0133 39.7321 23.2781 38.337 22.9845 36.8334C22.8262 36.0228 23.5103 35.3472 24.3362 35.3472L25.1957 35.3472C25.7463 35.3472 26.1814 35.7991 26.305 36.3356C26.489 37.1341 26.8938 37.8723 27.4825 38.461C28.3083 39.2869 29.4284 39.7508 30.5963 39.7508C31.7643 39.7508 32.8843 39.2869 33.7102 38.461C34.2989 37.8723 34.7037 37.1341 34.8876 36.3356C35.0112 35.7991 35.4463 35.3472 35.9969 35.3472H36.8564Z" fill="white"/>
<circle cx="46.1086" cy="19.601" r="6.34542" fill="white"/>
<path d="M65.062 12.676C65.286 12.676 65.518 12.74 65.758 12.868C66.014 12.98 66.206 13.132 66.334 13.324L72.166 22.3L70.966 22.252L76.942 13.324C77.246 12.892 77.638 12.676 78.118 12.676C78.502 12.676 78.846 12.812 79.15 13.084C79.454 13.356 79.606 13.708 79.606 14.14V28.036C79.606 28.452 79.47 28.804 79.198 29.092C78.926 29.364 78.566 29.5 78.118 29.5C77.67 29.5 77.302 29.364 77.014 29.092C76.742 28.804 76.606 28.452 76.606 28.036V16.732L77.542 16.948L72.646 24.412C72.502 24.588 72.318 24.74 72.094 24.868C71.886 24.996 71.67 25.052 71.446 25.036C71.238 25.052 71.022 24.996 70.798 24.868C70.59 24.74 70.414 24.588 70.27 24.412L65.686 17.164L66.31 15.892V28.036C66.31 28.452 66.182 28.804 65.926 29.092C65.67 29.364 65.334 29.5 64.918 29.5C64.518 29.5 64.19 29.364 63.934 29.092C63.678 28.804 63.55 28.452 63.55 28.036V14.14C63.55 13.74 63.694 13.396 63.982 13.108C64.286 12.82 64.646 12.676 65.062 12.676ZM92.8861 16.42C93.3021 16.42 93.6461 16.556 93.9181 16.828C94.1901 17.1 94.3261 17.452 94.3261 17.884V28.036C94.3261 28.452 94.1901 28.804 93.9181 29.092C93.6461 29.364 93.3021 29.5 92.8861 29.5C92.4701 29.5 92.1261 29.364 91.8541 29.092C91.5821 28.804 91.4461 28.452 91.4461 28.036V26.86L91.9741 27.076C91.9741 27.284 91.8621 27.54 91.6381 27.844C91.4141 28.132 91.1101 28.42 90.7261 28.708C90.3421 28.996 89.8861 29.244 89.3581 29.452C88.8461 29.644 88.2861 29.74 87.6781 29.74C86.5741 29.74 85.5741 29.46 84.6781 28.9C83.7821 28.324 83.0701 27.54 82.5421 26.548C82.0301 25.54 81.7741 24.388 81.7741 23.092C81.7741 21.78 82.0301 20.628 82.5421 19.636C83.0701 18.628 83.7741 17.844 84.6541 17.284C85.5341 16.708 86.5101 16.42 87.5821 16.42C88.2701 16.42 88.9021 16.524 89.4781 16.732C90.0541 16.94 90.5501 17.204 90.9661 17.524C91.3981 17.844 91.7261 18.172 91.9501 18.508C92.1901 18.828 92.3101 19.1 92.3101 19.324L91.4461 19.636V17.884C91.4461 17.468 91.5821 17.124 91.8541 16.852C92.1261 16.564 92.4701 16.42 92.8861 16.42ZM88.0381 27.1C88.7421 27.1 89.3581 26.924 89.8861 26.572C90.4141 26.22 90.8221 25.74 91.1101 25.132C91.4141 24.524 91.5661 23.844 91.5661 23.092C91.5661 22.324 91.4141 21.636 91.1101 21.028C90.8221 20.42 90.4141 19.94 89.8861 19.588C89.3581 19.236 88.7421 19.06 88.0381 19.06C87.3501 19.06 86.7421 19.236 86.2141 19.588C85.6861 19.94 85.2701 20.42 84.9661 21.028C84.6781 21.636 84.5341 22.324 84.5341 23.092C84.5341 23.844 84.6781 24.524 84.9661 25.132C85.2701 25.74 85.6861 26.22 86.2141 26.572C86.7421 26.924 87.3501 27.1 88.0381 27.1ZM98.2844 29.5C97.8684 29.5 97.5244 29.364 97.2524 29.092C96.9804 28.804 96.8444 28.452 96.8444 28.036V18.124C96.8444 17.708 96.9804 17.364 97.2524 17.092C97.5244 16.804 97.8684 16.66 98.2844 16.66C98.7004 16.66 99.0444 16.804 99.3164 17.092C99.5884 17.364 99.7244 17.708 99.7244 18.124V20.38L99.5564 18.772C99.7324 18.388 99.9564 18.052 100.228 17.764C100.516 17.46 100.836 17.212 101.188 17.02C101.54 16.812 101.916 16.66 102.316 16.564C102.716 16.468 103.116 16.42 103.516 16.42C103.996 16.42 104.396 16.556 104.716 16.828C105.052 17.1 105.22 17.42 105.22 17.788C105.22 18.316 105.084 18.7 104.812 18.94C104.54 19.164 104.244 19.276 103.924 19.276C103.62 19.276 103.34 19.22 103.084 19.108C102.844 18.996 102.564 18.94 102.244 18.94C101.956 18.94 101.66 19.012 101.356 19.156C101.068 19.284 100.796 19.492 100.54 19.78C100.3 20.068 100.1 20.428 99.9404 20.86C99.7964 21.276 99.7244 21.772 99.7244 22.348V28.036C99.7244 28.452 99.5884 28.804 99.3164 29.092C99.0444 29.364 98.7004 29.5 98.2844 29.5ZM108.331 29.5C107.915 29.5 107.571 29.364 107.299 29.092C107.027 28.804 106.891 28.452 106.891 28.036V13.204C106.891 12.788 107.027 12.444 107.299 12.172C107.571 11.884 107.915 11.74 108.331 11.74C108.747 11.74 109.091 11.884 109.363 12.172C109.635 12.444 109.771 12.788 109.771 13.204V28.036C109.771 28.452 109.635 28.804 109.363 29.092C109.091 29.364 108.747 29.5 108.331 29.5ZM115.963 16.66C116.331 16.66 116.651 16.812 116.923 17.116C117.195 17.42 117.331 17.716 117.331 18.004C117.331 18.388 117.139 18.748 116.755 19.084L109.531 25.732L109.411 22.42L114.907 17.116C115.211 16.812 115.563 16.66 115.963 16.66ZM116.323 29.476C115.907 29.476 115.555 29.316 115.267 28.996L110.827 24.292L113.011 22.276L117.331 26.98C117.635 27.3 117.787 27.66 117.787 28.06C117.787 28.476 117.619 28.82 117.283 29.092C116.963 29.348 116.643 29.476 116.323 29.476ZM125.224 29.74C123.864 29.74 122.68 29.46 121.672 28.9C120.68 28.324 119.912 27.548 119.368 26.572C118.84 25.596 118.576 24.492 118.576 23.26C118.576 21.82 118.864 20.596 119.44 19.588C120.032 18.564 120.8 17.78 121.744 17.236C122.688 16.692 123.688 16.42 124.744 16.42C125.56 16.42 126.328 16.588 127.048 16.924C127.784 17.26 128.432 17.724 128.992 18.316C129.552 18.892 129.992 19.564 130.312 20.332C130.648 21.1 130.816 21.916 130.816 22.78C130.8 23.164 130.648 23.476 130.36 23.716C130.072 23.956 129.736 24.076 129.352 24.076H120.184L119.464 21.676H128.272L127.744 22.156V21.508C127.712 21.044 127.544 20.628 127.24 20.26C126.952 19.892 126.584 19.604 126.136 19.396C125.704 19.172 125.24 19.06 124.744 19.06C124.264 19.06 123.816 19.124 123.4 19.252C122.984 19.38 122.624 19.596 122.32 19.9C122.016 20.204 121.776 20.612 121.6 21.124C121.424 21.636 121.336 22.284 121.336 23.068C121.336 23.932 121.512 24.668 121.864 25.276C122.232 25.868 122.696 26.324 123.256 26.644C123.832 26.948 124.44 27.1 125.08 27.1C125.672 27.1 126.144 27.052 126.496 26.956C126.848 26.86 127.128 26.748 127.336 26.62C127.56 26.476 127.76 26.356 127.936 26.26C128.224 26.116 128.496 26.044 128.752 26.044C129.104 26.044 129.392 26.164 129.616 26.404C129.856 26.644 129.976 26.924 129.976 27.244C129.976 27.676 129.752 28.068 129.304 28.42C128.888 28.772 128.304 29.084 127.552 29.356C126.8 29.612 126.024 29.74 125.224 29.74ZM132.876 16.9H138.564C138.948 16.9 139.268 17.028 139.524 17.284C139.78 17.54 139.908 17.86 139.908 18.244C139.908 18.612 139.78 18.924 139.524 19.18C139.268 19.42 138.948 19.54 138.564 19.54H132.876C132.492 19.54 132.172 19.412 131.916 19.156C131.66 18.9 131.532 18.58 131.532 18.196C131.532 17.828 131.66 17.524 131.916 17.284C132.172 17.028 132.492 16.9 132.876 16.9ZM135.444 13.9C135.86 13.9 136.196 14.044 136.452 14.332C136.724 14.604 136.86 14.948 136.86 15.364V26.044C136.86 26.268 136.9 26.452 136.98 26.596C137.076 26.74 137.196 26.844 137.34 26.908C137.5 26.972 137.668 27.004 137.844 27.004C138.036 27.004 138.212 26.972 138.372 26.908C138.532 26.828 138.716 26.788 138.924 26.788C139.148 26.788 139.348 26.892 139.524 27.1C139.716 27.308 139.812 27.596 139.812 27.964C139.812 28.412 139.564 28.78 139.068 29.068C138.588 29.356 138.068 29.5 137.508 29.5C137.172 29.5 136.796 29.476 136.38 29.428C135.98 29.364 135.596 29.228 135.228 29.02C134.876 28.796 134.58 28.46 134.34 28.012C134.1 27.564 133.98 26.948 133.98 26.164V15.364C133.98 14.948 134.116 14.604 134.388 14.332C134.676 14.044 135.028 13.9 135.444 13.9ZM149.728 29.5C149.328 29.5 148.992 29.364 148.72 29.092C148.448 28.804 148.312 28.452 148.312 28.036V16.756L148.816 16.876L144.184 22.612L144.064 22.3H152.56C152.944 22.3 153.264 22.428 153.52 22.684C153.776 22.94 153.904 23.26 153.904 23.644C153.904 24.012 153.776 24.324 153.52 24.58C153.264 24.82 152.944 24.94 152.56 24.94H142.072C141.736 24.94 141.408 24.804 141.088 24.532C140.784 24.26 140.632 23.924 140.632 23.524C140.632 23.172 140.752 22.852 140.992 22.564L148.576 13.276C148.704 13.1 148.872 12.964 149.08 12.868C149.288 12.756 149.52 12.7 149.776 12.7C150.192 12.7 150.528 12.844 150.784 13.132C151.056 13.404 151.192 13.748 151.192 14.164V28.036C151.192 28.452 151.048 28.804 150.76 29.092C150.488 29.364 150.144 29.5 149.728 29.5ZM171.158 21.1C171.158 22.332 170.958 23.476 170.558 24.532C170.158 25.572 169.598 26.484 168.878 27.268C168.158 28.052 167.302 28.66 166.31 29.092C165.318 29.524 164.238 29.74 163.07 29.74C161.886 29.74 160.798 29.524 159.806 29.092C158.83 28.66 157.982 28.052 157.262 27.268C156.542 26.484 155.982 25.572 155.582 24.532C155.182 23.476 154.982 22.332 154.982 21.1C154.982 19.852 155.182 18.708 155.582 17.668C155.982 16.612 156.542 15.7 157.262 14.932C157.982 14.148 158.83 13.54 159.806 13.108C160.798 12.676 161.886 12.46 163.07 12.46C164.238 12.46 165.318 12.676 166.31 13.108C167.302 13.54 168.158 14.148 168.878 14.932C169.598 15.7 170.158 16.612 170.558 17.668C170.958 18.708 171.158 19.852 171.158 21.1ZM169.094 21.1C169.094 19.788 168.83 18.628 168.302 17.62C167.79 16.612 167.086 15.82 166.19 15.244C165.294 14.668 164.254 14.38 163.07 14.38C161.886 14.38 160.838 14.668 159.926 15.244C159.03 15.82 158.326 16.612 157.814 17.62C157.302 18.628 157.046 19.788 157.046 21.1C157.046 22.396 157.302 23.556 157.814 24.58C158.326 25.588 159.03 26.38 159.926 26.956C160.838 27.532 161.886 27.82 163.07 27.82C164.254 27.82 165.294 27.532 166.19 26.956C167.086 26.38 167.79 25.588 168.302 24.58C168.83 23.556 169.094 22.396 169.094 21.1ZM179.526 16.9C180.614 16.9 181.59 17.172 182.454 17.716C183.318 18.26 183.998 19.012 184.494 19.972C185.006 20.932 185.262 22.036 185.262 23.284C185.262 24.516 185.006 25.62 184.494 26.596C183.998 27.556 183.318 28.316 182.454 28.876C181.606 29.42 180.646 29.692 179.574 29.692C178.982 29.692 178.422 29.604 177.894 29.428C177.382 29.236 176.91 28.996 176.478 28.708C176.062 28.404 175.71 28.068 175.422 27.7C175.134 27.316 174.926 26.94 174.798 26.572L175.326 26.236V33.316C175.326 33.588 175.238 33.82 175.062 34.012C174.886 34.204 174.654 34.3 174.366 34.3C174.094 34.3 173.862 34.204 173.67 34.012C173.494 33.836 173.406 33.604 173.406 33.316V17.98C173.406 17.708 173.494 17.484 173.67 17.308C173.862 17.116 174.094 17.02 174.366 17.02C174.654 17.02 174.886 17.116 175.062 17.308C175.238 17.484 175.326 17.708 175.326 17.98V20.116L174.966 19.924C175.078 19.524 175.27 19.14 175.542 18.772C175.83 18.404 176.174 18.084 176.574 17.812C176.99 17.524 177.446 17.3 177.942 17.14C178.454 16.98 178.982 16.9 179.526 16.9ZM179.31 18.676C178.51 18.676 177.798 18.876 177.174 19.276C176.566 19.676 176.086 20.22 175.734 20.908C175.398 21.596 175.23 22.388 175.23 23.284C175.23 24.164 175.398 24.956 175.734 25.66C176.086 26.364 176.566 26.916 177.174 27.316C177.798 27.716 178.51 27.916 179.31 27.916C180.11 27.916 180.814 27.716 181.422 27.316C182.03 26.916 182.51 26.364 182.862 25.66C183.214 24.956 183.39 24.164 183.39 23.284C183.39 22.388 183.214 21.596 182.862 20.908C182.51 20.22 182.03 19.676 181.422 19.276C180.814 18.876 180.11 18.676 179.31 18.676ZM187.068 17.164H192.708C192.964 17.164 193.172 17.252 193.332 17.428C193.508 17.604 193.596 17.812 193.596 18.052C193.596 18.308 193.508 18.524 193.332 18.7C193.172 18.86 192.964 18.94 192.708 18.94H187.068C186.828 18.94 186.62 18.852 186.444 18.676C186.268 18.5 186.18 18.284 186.18 18.028C186.18 17.788 186.268 17.588 186.444 17.428C186.62 17.252 186.828 17.164 187.068 17.164ZM189.588 13.9C189.86 13.9 190.084 13.996 190.26 14.188C190.436 14.364 190.524 14.588 190.524 14.86V26.452C190.524 26.836 190.58 27.124 190.692 27.316C190.804 27.508 190.948 27.644 191.124 27.724C191.316 27.788 191.5 27.82 191.676 27.82C191.836 27.82 191.972 27.796 192.084 27.748C192.212 27.684 192.356 27.652 192.516 27.652C192.676 27.652 192.82 27.732 192.948 27.892C193.092 28.036 193.164 28.228 193.164 28.468C193.164 28.756 192.996 29.004 192.66 29.212C192.324 29.404 191.948 29.5 191.532 29.5C191.308 29.5 191.028 29.484 190.692 29.452C190.372 29.42 190.052 29.316 189.732 29.14C189.412 28.964 189.14 28.676 188.916 28.276C188.708 27.86 188.604 27.284 188.604 26.548V14.86C188.604 14.588 188.7 14.364 188.892 14.188C189.084 13.996 189.316 13.9 189.588 13.9ZM197.515 28.516C197.515 28.788 197.419 29.02 197.227 29.212C197.051 29.404 196.827 29.5 196.555 29.5C196.267 29.5 196.035 29.404 195.859 29.212C195.683 29.02 195.595 28.788 195.595 28.516V17.86C195.595 17.588 195.683 17.364 195.859 17.188C196.051 16.996 196.283 16.9 196.555 16.9C196.827 16.9 197.051 16.996 197.227 17.188C197.419 17.364 197.515 17.588 197.515 17.86V28.516ZM196.555 15.292C196.155 15.292 195.859 15.212 195.667 15.052C195.475 14.892 195.379 14.644 195.379 14.308V13.972C195.379 13.636 195.483 13.388 195.691 13.228C195.899 13.068 196.195 12.988 196.579 12.988C196.963 12.988 197.251 13.068 197.443 13.228C197.635 13.388 197.731 13.636 197.731 13.972V14.308C197.731 14.644 197.627 14.892 197.419 15.052C197.227 15.212 196.939 15.292 196.555 15.292ZM205.883 16.78C206.699 16.78 207.435 16.868 208.091 17.044C208.747 17.22 209.267 17.46 209.651 17.764C210.035 18.068 210.227 18.412 210.227 18.796C210.227 19.004 210.155 19.204 210.011 19.396C209.867 19.588 209.675 19.684 209.435 19.684C209.211 19.684 209.027 19.644 208.883 19.564C208.755 19.484 208.627 19.38 208.499 19.252C208.387 19.124 208.227 19.012 208.019 18.916C207.827 18.804 207.547 18.716 207.179 18.652C206.811 18.588 206.443 18.556 206.075 18.556C205.195 18.556 204.419 18.764 203.747 19.18C203.091 19.596 202.571 20.156 202.187 20.86C201.803 21.564 201.611 22.364 201.611 23.26C201.611 24.156 201.795 24.956 202.163 25.66C202.531 26.364 203.043 26.924 203.699 27.34C204.355 27.756 205.115 27.964 205.979 27.964C206.539 27.964 206.987 27.916 207.323 27.82C207.659 27.724 207.939 27.612 208.163 27.484C208.451 27.324 208.667 27.164 208.811 27.004C208.971 26.844 209.179 26.764 209.435 26.764C209.707 26.764 209.915 26.852 210.059 27.028C210.219 27.204 210.299 27.42 210.299 27.676C210.299 27.964 210.099 28.268 209.699 28.588C209.299 28.908 208.755 29.18 208.067 29.404C207.395 29.628 206.627 29.74 205.763 29.74C204.547 29.74 203.483 29.46 202.571 28.9C201.659 28.324 200.947 27.548 200.435 26.572C199.939 25.58 199.691 24.476 199.691 23.26C199.691 22.044 199.947 20.948 200.459 19.972C200.987 18.996 201.715 18.22 202.643 17.644C203.571 17.068 204.651 16.78 205.883 16.78ZM222.433 16.972C222.705 16.972 222.929 17.068 223.105 17.26C223.297 17.436 223.393 17.66 223.393 17.932V28.516C223.393 28.788 223.297 29.02 223.105 29.212C222.929 29.404 222.705 29.5 222.433 29.5C222.145 29.5 221.913 29.404 221.737 29.212C221.561 29.02 221.473 28.788 221.473 28.516V26.236L221.929 26.188C221.929 26.54 221.809 26.924 221.569 27.34C221.329 27.756 221.001 28.148 220.585 28.516C220.169 28.868 219.673 29.164 219.097 29.404C218.537 29.628 217.929 29.74 217.273 29.74C216.185 29.74 215.209 29.46 214.345 28.9C213.481 28.324 212.793 27.548 212.281 26.572C211.785 25.596 211.537 24.484 211.537 23.236C211.537 21.972 211.785 20.86 212.281 19.9C212.793 18.924 213.481 18.164 214.345 17.62C215.209 17.06 216.169 16.78 217.225 16.78C217.913 16.78 218.553 16.892 219.145 17.116C219.737 17.34 220.249 17.644 220.681 18.028C221.129 18.412 221.473 18.836 221.713 19.3C221.969 19.764 222.097 20.228 222.097 20.692L221.473 20.548V17.932C221.473 17.66 221.561 17.436 221.737 17.26C221.913 17.068 222.145 16.972 222.433 16.972ZM217.489 27.964C218.289 27.964 218.993 27.756 219.601 27.34C220.225 26.924 220.705 26.364 221.041 25.66C221.393 24.94 221.569 24.132 221.569 23.236C221.569 22.356 221.393 21.564 221.041 20.86C220.705 20.14 220.225 19.58 219.601 19.18C218.993 18.764 218.289 18.556 217.489 18.556C216.705 18.556 216.001 18.756 215.377 19.156C214.769 19.556 214.289 20.108 213.937 20.812C213.585 21.516 213.409 22.324 213.409 23.236C213.409 24.132 213.577 24.94 213.913 25.66C214.265 26.364 214.745 26.924 215.353 27.34C215.977 27.756 216.689 27.964 217.489 27.964ZM228.463 28.516C228.463 28.788 228.367 29.02 228.175 29.212C227.983 29.404 227.751 29.5 227.479 29.5C227.207 29.5 226.983 29.404 226.807 29.212C226.631 29.02 226.543 28.788 226.543 28.516V12.7C226.543 12.428 226.631 12.204 226.807 12.028C226.999 11.836 227.231 11.74 227.503 11.74C227.791 11.74 228.023 11.836 228.199 12.028C228.375 12.204 228.463 12.428 228.463 12.7V28.516ZM230.891 27.532C230.747 27.324 230.683 27.108 230.699 26.884C230.715 26.644 230.851 26.436 231.107 26.26C231.267 26.148 231.451 26.1 231.659 26.116C231.883 26.132 232.083 26.236 232.259 26.428C232.707 26.956 233.219 27.38 233.795 27.7C234.371 28.004 235.075 28.156 235.907 28.156C236.291 28.14 236.675 28.076 237.059 27.964C237.443 27.852 237.763 27.66 238.019 27.388C238.291 27.1 238.427 26.724 238.427 26.26C238.427 25.812 238.291 25.46 238.019 25.204C237.747 24.932 237.395 24.716 236.963 24.556C236.531 24.38 236.059 24.228 235.547 24.1C235.019 23.956 234.499 23.796 233.987 23.62C233.475 23.428 233.011 23.196 232.595 22.924C232.195 22.636 231.867 22.284 231.611 21.868C231.371 21.436 231.251 20.916 231.251 20.308C231.251 19.588 231.443 18.964 231.827 18.436C232.227 17.908 232.755 17.5 233.411 17.212C234.083 16.924 234.811 16.78 235.595 16.78C236.043 16.78 236.507 16.836 236.987 16.948C237.483 17.044 237.963 17.22 238.427 17.476C238.891 17.716 239.299 18.052 239.651 18.484C239.795 18.644 239.875 18.844 239.891 19.084C239.907 19.324 239.803 19.54 239.579 19.732C239.403 19.86 239.203 19.916 238.979 19.9C238.771 19.884 238.595 19.804 238.451 19.66C238.115 19.26 237.691 18.956 237.179 18.748C236.683 18.524 236.131 18.412 235.523 18.412C235.139 18.412 234.763 18.468 234.395 18.58C234.027 18.692 233.715 18.884 233.459 19.156C233.219 19.412 233.099 19.772 233.099 20.236C233.115 20.668 233.259 21.02 233.531 21.292C233.803 21.564 234.171 21.788 234.635 21.964C235.099 22.124 235.611 22.284 236.171 22.444C236.683 22.572 237.171 22.724 237.635 22.9C238.115 23.06 238.547 23.276 238.931 23.548C239.315 23.82 239.619 24.172 239.843 24.604C240.067 25.02 240.179 25.548 240.179 26.188C240.179 26.924 239.971 27.564 239.555 28.108C239.139 28.636 238.587 29.044 237.899 29.332C237.227 29.604 236.499 29.74 235.715 29.74C234.835 29.74 233.963 29.572 233.099 29.236C232.251 28.9 231.515 28.332 230.891 27.532Z" fill="white"/>
</svg>
